<?xml version="1.0" encoding="UTF-8"?>
<svg id="Layer_1" xmlns="http://www.w3.org/2000/svg" version="1.1" viewBox="0 0 20 20">
  <!-- Generator: Adobe Illustrator 30.1.0, SVG Export Plug-In . SVG Version: 2.1.1 Build 136)  -->
  <defs>
    <style>
      .st0 {
        fill-opacity: .3;
        fill-rule: evenodd;
      }
    </style>
  </defs>
  <path class="st0" d="M17.7,3.71c.39-.39.39-1.02,0-1.41-.39-.39-1.02-.39-1.41,0l-6.29,6.29L3.71,2.29c-.39-.39-1.02-.39-1.41,0-.39.39-.39,1.02,0,1.41l6.29,6.29-6.29,6.29c-.39.39-.39,1.02,0,1.41.39.39,1.02.39,1.41,0l6.29-6.29,6.29,6.29c.39.39,1.02.39,1.41,0,.39-.39.39-1.02,0-1.41l-6.29-6.29,6.29-6.29Z"/>
</svg>